<svg version="1.1" viewBox="0.0 0.0 758.1286089238845 758.2073490813648" fill="none" stroke="none" stroke-linecap="square" stroke-miterlimit="10" xmlns:xlink="http://www.w3.org/1999/xlink" xmlns="http://www.w3.org/2000/svg"><clipPath id="p.0"><path d="m0 0l758.1286 0l0 758.20734l-758.1286 0l0 -758.20734z" clip-rule="nonzero"/></clipPath><g clip-path="url(#p.0)"><path fill="#000000" fill-opacity="0.0" d="m0 0l758.1286 0l0 758.20734l-758.1286 0z" fill-rule="evenodd"/><path fill="#ffffff" d="m1.1115485 379.10367l0 0c0 -208.73753 169.21523 -377.95276 377.95276 -377.95276l0 0c100.23932 0 196.37308 39.81991 267.25296 110.6998c70.87988 70.87989 110.69983 167.01367 110.69983 267.25296l0 0c0 208.73758 -169.21527 377.9528 -377.9528 377.9528l0 0c-208.73753 0 -377.95276 -169.21521 -377.95276 -377.9528z" fill-rule="evenodd"/><path fill="#000000" fill-opacity="0.0" d="m119.43307 377.95276l0 0c0 -142.77649 115.7432 -258.51968 258.51968 -258.51968l0 0c68.56369 0 134.31915 27.236824 182.80103 75.718666c48.48181 48.481842 75.71863 114.237335 75.71863 182.80103l0 0c0 142.77649 -115.743164 258.51965 -258.51965 258.51965l0 0c-142.77649 0 -258.51968 -115.743164 -258.51968 -258.51965z" fill-rule="evenodd"/><path fill="#073763" d="m121.4895 379.10367l0 0c0 -142.25462 115.32016 -257.5748 257.5748 -257.5748l0 0c68.31308 0 133.82828 27.137268 182.1329 75.44191c48.304626 48.304657 75.441895 113.81981 75.441895 182.13289l0 0c0 142.25467 -115.32013 257.5748 -257.5748 257.5748l0 0c-142.25464 0 -257.5748 -115.32013 -257.5748 -257.5748zm128.7874 0l0 0c0 71.12732 57.66008 128.78741 128.7874 128.78741c71.12732 0 128.78741 -57.660095 128.78741 -128.78741c0 -71.12732 -57.660095 -128.7874 -128.78741 -128.7874l0 0c-71.12732 0 -128.7874 57.66008 -128.7874 128.7874z" fill-rule="evenodd"/><path fill="#9fc5e8" d="m379.0643 600.77295l0 0c-79.33154 0 -152.6152 -42.394714 -192.16231 -111.16623c-39.547104 -68.771545 -39.327835 -153.43414 0.5749359 -221.99991c39.90277 -68.565765 113.40503 -110.58035 192.7355 -110.16945l-0.3237915 62.514328l0 0c-56.957703 -0.29501343 -109.730835 29.87062 -138.38025 79.09946c-28.649384 49.22885 -28.806808 110.01492 -0.41278076 159.39151c28.394012 49.376556 81.01022 79.815155 137.96869 79.815155z" fill-rule="evenodd"/></g></svg>